<svg width="73" height="38" viewBox="0 0 73 38" fill="none" xmlns="http://www.w3.org/2000/svg">
<path d="M22.0742 8.77344H17.6406V21H15.1895V8.77344H10.7949V6.78125H22.0742V8.77344ZM25.668 19.1055H31.293V21H22.7188V19.4473L28.0801 12.3477H22.8164V10.4336H31.0879V11.9375L25.668 19.1055ZM40.8535 17.3379C40.8535 16.7129 40.6322 16.2311 40.1895 15.8926C39.7533 15.554 38.9622 15.2122 37.8164 14.8672C36.6706 14.5221 35.7591 14.138 35.082 13.7148C33.7865 12.901 33.1387 11.8398 33.1387 10.5312C33.1387 9.38542 33.6042 8.44141 34.5352 7.69922C35.4727 6.95703 36.6868 6.58594 38.1777 6.58594C39.1673 6.58594 40.0495 6.76823 40.8242 7.13281C41.599 7.4974 42.2077 8.01823 42.6504 8.69531C43.0931 9.36589 43.3145 10.1113 43.3145 10.9316H40.8535C40.8535 10.1895 40.6191 9.61003 40.1504 9.19336C39.6882 8.77018 39.0241 8.55859 38.1582 8.55859C37.3509 8.55859 36.7227 8.73112 36.2734 9.07617C35.8307 9.42122 35.6094 9.90299 35.6094 10.5215C35.6094 11.0423 35.8503 11.4785 36.332 11.8301C36.8138 12.1751 37.6081 12.5137 38.7148 12.8457C39.8216 13.1712 40.7103 13.5456 41.3809 13.9688C42.0514 14.3854 42.543 14.8672 42.8555 15.4141C43.168 15.9544 43.3242 16.5892 43.3242 17.3184C43.3242 18.5033 42.8685 19.4473 41.957 20.1504C41.0521 20.847 39.8216 21.1953 38.2656 21.1953C37.237 21.1953 36.2897 21.0065 35.4238 20.6289C34.5645 20.2448 33.8939 19.7174 33.4121 19.0469C32.9368 18.3763 32.6992 17.5951 32.6992 16.7031H35.1699C35.1699 17.5104 35.4368 18.1354 35.9707 18.5781C36.5046 19.0208 37.2695 19.2422 38.2656 19.2422C39.125 19.2422 39.7695 19.0697 40.1992 18.7246C40.6354 18.373 40.8535 17.9108 40.8535 17.3379ZM47.7871 21H45.4141V10.4336H47.7871V21ZM45.2676 7.68945C45.2676 7.32487 45.3815 7.02214 45.6094 6.78125C45.8438 6.54036 46.1758 6.41992 46.6055 6.41992C47.0352 6.41992 47.3672 6.54036 47.6016 6.78125C47.8359 7.02214 47.9531 7.32487 47.9531 7.68945C47.9531 8.04753 47.8359 8.34701 47.6016 8.58789C47.3672 8.82227 47.0352 8.93945 46.6055 8.93945C46.1758 8.93945 45.8438 8.82227 45.6094 8.58789C45.3815 8.34701 45.2676 8.04753 45.2676 7.68945ZM49.9648 15.6387C49.9648 13.998 50.349 12.6895 51.1172 11.7129C51.8919 10.7298 52.9173 10.2383 54.1934 10.2383C55.3978 10.2383 56.3451 10.6582 57.0352 11.498L57.1426 10.4336H59.2812V20.6777C59.2812 22.0645 58.8483 23.1582 57.9824 23.959C57.123 24.7598 55.9609 25.1602 54.4961 25.1602C53.7214 25.1602 52.9629 24.9974 52.2207 24.6719C51.485 24.3529 50.9251 23.9329 50.541 23.4121L51.6641 21.9863C52.3932 22.8522 53.2917 23.2852 54.3594 23.2852C55.1471 23.2852 55.7689 23.0703 56.2246 22.6406C56.6803 22.2174 56.9082 21.5924 56.9082 20.7656V20.0527C56.2246 20.8145 55.3132 21.1953 54.1738 21.1953C52.9368 21.1953 51.9245 20.7038 51.1367 19.7207C50.3555 18.7376 49.9648 17.377 49.9648 15.6387ZM52.3281 15.8438C52.3281 16.9049 52.543 17.7415 52.9727 18.3535C53.4089 18.959 54.0111 19.2617 54.7793 19.2617C55.7363 19.2617 56.446 18.8516 56.9082 18.0312V13.3828C56.459 12.582 55.7559 12.1816 54.7988 12.1816C54.0176 12.1816 53.4089 12.4909 52.9727 13.1094C52.543 13.7279 52.3281 14.6393 52.3281 15.8438ZM63.9297 10.4336L63.998 11.6543C64.7793 10.7103 65.8047 10.2383 67.0742 10.2383C69.2747 10.2383 70.3945 11.498 70.4336 14.0176V21H68.0605V14.1543C68.0605 13.4837 67.9141 12.9889 67.6211 12.6699C67.3346 12.3444 66.8626 12.1816 66.2051 12.1816C65.248 12.1816 64.5352 12.6146 64.0664 13.4805V21H61.6934V10.4336H63.9297Z" fill="#22D369"/>
<g clip-path="url(#clip0)">
<path fill-rule="evenodd" clip-rule="evenodd" d="M26.9036 28.4633C27.8695 28.4633 28.9755 28.9486 29.5255 29.5906C31.489 31.8829 30.7266 33.7492 32.4501 34.2509C33.0504 34.4257 34.0542 33.8273 35.4615 32.4558L37.4743 34.5341C35.794 36.5272 34.1192 37.4631 32.4501 37.3417C31.1565 37.2924 30.6496 37.2924 29.385 36.0971C28.1205 34.9019 27.8249 31.5854 27.0207 31.5854C26.2165 31.5854 26.4164 37.3417 22.498 37.3417C20.471 37.3417 19.3568 34.803 19.1227 34.803C18.8887 34.803 18.4504 35.8373 17.7151 36.4825C17.2249 36.9127 16.5369 37.1991 15.6509 37.3417H13.5702V34.2509H15.2604C15.8438 34.2509 16.4476 32.9473 17.423 32.1666C18.3983 31.3859 19.7715 31.1861 20.9378 32.1666C22.1041 33.1471 22.2058 34.2509 22.498 34.2509C22.7901 34.2509 23.2769 30.9806 24.1775 29.8192C25.0781 28.6578 25.9376 28.4633 26.9036 28.4633ZM6.06886 20.6027V29.0594C5.96493 30.3394 5.6637 31.7113 5.16517 33.1749C4.66665 34.6386 3.96943 36 3.07351 37.259C2.19404 36.0977 1.50411 34.7655 1.0037 33.2622C0.503296 31.7589 0.168729 30.358 0 29.0594V20.6027H6.06886ZM10.8672 34.267V37.259H7.72335V34.267H10.8672ZM4.66849 0V2.96157H6.06886V17.9189H0V14.6854H3.03443V3.11006H1.43212V0H4.66849Z" fill="#22D369"/>
</g>
<defs>
<clipPath id="clip0">
<rect width="38" height="37.3968" fill="white"/>
</clipPath>
</defs>
</svg>
