<?xml version="1.0" encoding="UTF-8" standalone="no"?>
<svg
   xmlns:dc="http://purl.org/dc/elements/1.1/"
   xmlns:cc="http://creativecommons.org/ns#"
   xmlns:rdf="http://www.w3.org/1999/02/22-rdf-syntax-ns#"
   xmlns:svg="http://www.w3.org/2000/svg"
   xmlns="http://www.w3.org/2000/svg"
   xmlns:sodipodi="http://sodipodi.sourceforge.net/DTD/sodipodi-0.dtd"
   xmlns:inkscape="http://www.inkscape.org/namespaces/inkscape"
   inkscape:version="1.0 (4035a4f, 2020-05-01)"
   sodipodi:docname="Tezos-XTZ-Coin-Icon-Blue-256x256.svg"
   id="svg1462"
   version="1.1"
   viewBox="0 0 256 256"
   height="256"
   width="256">
  <metadata
     id="metadata1468">
    <rdf:RDF>
      <cc:Work
         rdf:about="">
        <dc:format>image/svg+xml</dc:format>
        <dc:type
           rdf:resource="http://purl.org/dc/dcmitype/StillImage" />
        <dc:title></dc:title>
      </cc:Work>
    </rdf:RDF>
  </metadata>
  <defs
     id="defs1466" />
  <sodipodi:namedview
     inkscape:current-layer="svg1462"
     inkscape:window-maximized="1"
     inkscape:window-y="0"
     inkscape:window-x="0"
     inkscape:cy="153.23013"
     inkscape:cx="4.4654275"
     inkscape:zoom="1.4124703"
     fit-margin-bottom="0"
     fit-margin-right="0"
     fit-margin-left="0"
     fit-margin-top="0"
     showgrid="false"
     id="namedview1464"
     inkscape:window-height="878"
     inkscape:window-width="1440"
     inkscape:pageshadow="2"
     inkscape:pageopacity="0"
     guidetolerance="10"
     gridtolerance="10"
     objecttolerance="10"
     borderopacity="1"
     bordercolor="#666666"
     pagecolor="#ffffff" />
  <path
     style="fill:#437eef;fill-opacity:1;stroke-width:1.12775"
     id="path1460"
     d="M 128,0 C 57.307912,0 0,57.307912 0,128 0,198.69209 57.307912,256 128,256 198.69209,256 256,198.69209 256,128 256,57.307912 198.69209,0 128,0 Z m 64.053,200.80099 c -3.55919,7.19168 -8.86075,12.56994 -16.1201,16.13025 -7.04733,3.49153 -14.86379,5.23729 -23.23623,5.23729 -12.28349,0 -21.28409,-2.93216 -26.86647,-8.86753 -5.65342,-5.86431 -8.44461,-12.2192 -8.44461,-19.06128 0,-2.51376 0.48944,-4.608 1.46608,-6.28384 0.97663,-1.67584 2.30287,-3.072 4.04863,-4.04977 1.67359,-0.97776 3.76782,-1.46607 6.27933,-1.46607 2.51151,0 4.60574,0.48831 6.28046,1.46607 1.67358,0.97777 3.06974,2.304 4.0475,4.04977 0.97664,1.74576 1.46496,3.77008 1.46496,6.28384 0,3.00321 -0.69808,5.44705 -2.16303,7.33152 -1.46496,1.88561 -3.1408,3.14192 -5.09407,3.70016 1.67359,2.37392 4.39486,4.05089 8.02397,5.02865 3.63024,0.97551 7.32701,1.53488 11.02604,1.53488 5.09406,0 9.69981,-1.39729 13.81724,-4.11856 4.11517,-2.72465 7.18717,-6.84321 9.14156,-12.14929 1.95215,-5.37712 2.93104,-11.4512 2.93104,-18.29441 0,-7.40145 -1.04769,-13.75521 -3.21072,-18.99362 -2.09311,-5.23616 -5.23503,-9.14608 -9.35246,-11.72864 -4.11517,-2.58368 -8.5822,-3.84112 -13.32666,-3.84112 -3.14079,0 -7.04846,1.32736 -11.79404,3.91104 l -8.65325,4.32832 v -4.1896 l 38.87027,-51.807861 h -53.80398 v 53.833301 c 0,4.46816 0.97776,8.10066 2.93103,11.03169 1.9544,2.86336 4.95647,4.32944 9.00173,4.32944 3.14079,0 6.14174,-1.04768 9.00285,-3.14192 a 32.472529,32.472529 0 0 0 7.46573,-7.68113 c 0.27855,-0.55824 0.55824,-1.04655 0.97663,-1.32624 0.4184,-0.27968 0.83792,-0.41952 1.25632,-0.41952 0.69808,0 1.60479,0.3496 2.58143,1.04768 0.90784,1.04769 1.39615,2.23408 1.39615,3.63137 a 23.552,23.552 0 0 1 -0.48944,2.7224 c -2.23182,4.9576 -5.30382,8.79873 -9.21149,11.38128 -3.90766,2.65473 -8.23485,3.91218 -12.98044,3.91218 -11.65307,0 -19.67929,-2.304 -24.1452,-6.84321 -4.4659,-4.608 -6.697725,-10.82305 -6.697725,-18.64289 V 94.947806 H 71.048458 V 84.892758 H 98.544211 V 62.130185 l -6.281585,-6.283841 v -5.097445 h 18.213214 l 6.83757,3.561445 v 30.652334 l 71.04056,-0.209762 7.04733,7.052969 -43.54481,43.569625 c 2.65361,-1.04656 5.37488,-1.67584 8.23599,-1.9544 4.74558,0 10.04828,1.46721 15.98026,4.46816 5.93198,3.00321 10.46781,7.0541 13.67739,12.14929 3.21072,5.16736 5.30383,10.05504 6.21054,14.80288 0.97776,4.74785 1.39616,8.93745 1.39616,12.56994 0,8.37808 -1.74464,16.19792 -5.30383,23.38961 z" />
</svg>
